<?xml version="1.0" encoding="UTF-8" standalone="no"?>
<!DOCTYPE svg PUBLIC "-//W3C//DTD SVG 1.1//EN" "http://www.w3.org/Graphics/SVG/1.1/DTD/svg11.dtd">
<svg width="100%" height="100%" viewBox="0 0 1774 1183" version="1.1" xmlns="http://www.w3.org/2000/svg" xmlns:xlink="http://www.w3.org/1999/xlink" xml:space="preserve" xmlns:serif="http://www.serif.com/" style="fill-rule:evenodd;clip-rule:evenodd;stroke-linejoin:round;stroke-miterlimit:2;">
    <g id="Tavola-da-disegno11" serif:id="Tavola da disegno11" transform="matrix(1,0,0,1,0,-1418.947455)">
        <rect x="0" y="1418.947" width="1773.108" height="1182.727" style="fill:none;"/>
        <g>
            <g transform="matrix(1,0,0,1,526,1563.947455)">
                <path d="M232.134,458.596C231.767,452.013 229.591,439.959 228.901,431.445C227.683,416.414 227.007,416.547 225.959,401.477C224.624,382.273 220.769,369.713 221.738,363.518C221.838,362.877 220.257,363.131 220.546,355.496C220.723,350.791 217.931,351.101 218.89,346.512C221.523,333.918 217.663,331.705 214.995,316.469C211.451,296.226 211.372,286.356 204.457,250.517C203.799,247.108 204.291,244.975 202.706,246.658C202.473,246.905 198.484,264.842 198.131,266.427C180.226,346.943 173.94,376.518 171.169,403.462C170.758,407.462 164.215,442.161 158.772,460.588C148.528,495.265 135.785,528.319 65.484,522.982C60.378,522.594 60.464,521.599 55.574,522.721C52.123,523.513 40.787,522.423 34.376,517.683C33.662,517.156 33.357,517.876 24.718,512.218C17.339,507.385 10.936,487.906 19.764,497.226C20.081,497.561 20.21,497.159 24.719,500.168C26.501,501.357 33.363,499.219 38.741,502.114C54.057,510.358 94.63,504.745 99.442,504.08C159.297,495.8 136.168,413.352 192.84,205.587C192.848,205.556 194.612,190.56 204.525,191.084C214.296,191.601 214.06,202.293 220.138,226.58C227.08,254.318 239.185,321.801 239.982,331.479C240.208,334.214 241.155,334.041 244.861,365.436C252.511,430.242 254.255,429.931 254.979,444.486C254.991,444.738 257.541,460.199 258.087,467.543C258.607,474.553 260.412,493.221 260.628,495.452L261.501,495.726C261.697,495.466 262.049,496.616 262.244,496.356C262.508,496.006 261.709,472.929 263.756,454.532C264.716,445.906 265.008,425.974 265.044,423.489C265.085,420.683 265.666,420.731 267.183,388.476C267.866,373.949 280.217,234.244 291.114,178.437C295.189,157.566 317.765,61.552 320.151,51.404C322.818,40.325 326.422,27.473 327.003,25.401C327.447,23.8 330.733,-3.204 349.549,3.377C360.772,7.303 359.334,17.222 365.118,52.557C366.346,60.061 377.354,127.313 379.481,146.505C401.042,279.751 405.867,333.329 407.664,341.466C408.313,344.407 408.27,354.379 408.265,355.503C408.259,356.953 409.701,356.674 410.35,373.51C411.432,401.569 414.22,401.309 413.951,429.506C413.881,436.781 419.58,585.043 420.842,587.28C422.564,590.332 422.357,580.116 422.344,579.48C422.34,579.304 428.156,528.077 431.867,504.56C433.553,493.869 433.373,483.383 442.307,436.453C443.012,432.751 446.799,405.431 450.761,391.577C452.93,383.992 453.954,373.988 454.112,372.442C454.623,367.45 456.02,364.994 456.35,364.415C457.653,362.125 456.067,361.678 457.458,359.475C457.673,359.134 461.571,338.288 461.767,337.574C465.046,325.62 473.056,276.353 480.45,273.405C497.647,266.548 494.922,294.301 499.723,312.433C501.04,317.409 500.024,317.525 512.112,375.567C541.273,515.593 526.588,580.678 580.419,597.73C587.224,599.886 619.058,601.569 620.406,598.454C627.074,583.045 628.465,581.766 640.607,578.817C642.831,578.277 647.62,568.637 668.542,574.361C672.508,575.446 676.658,578.506 677.296,578.975C682.735,582.986 676.445,575.21 677.165,494.496C677.217,488.656 677.794,423.929 678.518,421.505C679.349,418.727 685.65,414.792 686.726,424.475C696.059,508.47 693.481,579.993 692.994,593.516C692.97,594.167 692.723,601.034 693.396,601.641C693.796,602.002 734.072,605.871 778.507,603.312C781.967,603.113 782.527,602.771 783.495,604.502C785.439,607.981 782.088,606.152 776.52,606.653C762.401,607.925 762.568,608.913 748.49,609.044C744.89,609.077 744.934,609.319 703.497,609.868C694.411,609.988 692.192,609.711 691.998,612.533C691.094,625.712 692.699,636.454 683.547,632.415C680.224,630.948 674.777,646.624 652.465,644.831C637.512,643.63 622.726,632.978 619.36,617.531C618.413,613.184 618.53,611.605 612.465,612.126C586.376,614.368 535.044,619.18 519.142,533.572C510.925,489.337 508.302,443.916 500.305,414.562C499.019,409.84 496.974,397.898 496.725,396.442C496.021,392.329 494.837,392.74 494.154,388.569C492.694,379.655 486.206,350.584 485.111,341.532C485.086,341.326 482.947,331.214 482.718,340.55C482.713,340.749 469.313,406.138 468.931,413.518C468.314,425.458 459.289,451.688 444.539,597.504C441.648,626.086 441.243,625.933 439.905,654.522C439.065,672.439 438.482,676.557 438.213,678.458C437.932,680.447 439.284,680.501 436.928,703.538C436.658,706.177 439.954,729.789 423.506,730.64C411.038,731.284 410.019,718.962 409.894,717.451C409.402,711.499 403.427,668.679 402.836,664.442C399.239,638.661 394.755,591.91 393.891,572.458C393.414,561.733 390.596,524.67 390.28,520.517C389.401,508.961 390.532,508.957 388.944,497.443C386.755,481.575 388.826,442.515 384.17,395.53C383.646,390.242 384.898,389.075 383.208,379.554C382.353,374.732 383.973,374.193 379.883,346.44C377.603,330.975 374.199,294.566 368.871,271.418C366.54,261.291 365.747,246.179 363.011,229.543C362.127,224.172 352.294,164.39 351.773,162.428C347.716,147.161 341.667,99.765 341.306,98.703L339.757,99.61C334.303,124.618 328.815,143.958 325.841,162.565C324.866,168.664 324.068,170.048 323.735,170.626C323.491,171.05 322.058,185.862 318.559,195.516C318.183,196.556 315.19,214.681 314.933,221.523C314.89,222.677 302.961,293.81 301.928,320.536C301.849,322.582 297.814,351.659 296.953,386.512C296.766,394.084 296.025,393.957 295.947,401.506C295.853,410.654 290.154,480.063 290.008,484.488C289.936,486.651 289.755,486.602 288.376,511.493C287.101,534.511 287.601,534.458 286.642,557.512C286.556,559.576 285.126,561.255 284.98,568.499C284.851,574.934 282.243,606.862 282.026,617.487C281.905,623.418 281.023,635.001 280.907,636.522C280.692,639.344 283.793,667.481 265.508,667.876C252.256,668.163 250.342,651.464 250.124,649.563C247.398,625.777 247.137,615.481 247.062,612.507C246.934,607.464 245.889,607.602 246.622,602.514C247.03,599.687 244.541,600.037 244.983,594.516C245.237,591.334 246.155,591.19 244.453,588.517C243.507,587.032 245.43,586.8 244.013,566.513C243.205,554.94 242.639,555.059 242.015,543.521C241.531,534.566 241.386,533.408 241.277,532.534C241.111,531.208 240.803,522.303 240.773,521.412C239.2,502.426 239.071,502.092 238.463,500.525C236.611,495.746 240.465,489.77 236.917,493.5C236.548,493.888 236.023,494.104 235.654,494.493L235.696,491.467C234.17,485.068 236.206,484.997 235.453,478.505C235.369,477.782 235.132,477.832 234.083,469.502C233.972,468.623 233.606,468.719 232.134,458.596ZM655.5,600.034C663.039,600.008 663.01,599.553 670.451,600.825C679.062,602.296 668.591,582.221 662.429,586.396C657.586,589.679 634.912,588.95 636.172,598.569C636.403,600.334 643.808,599.833 655.5,600.034ZM663.5,609.964C636.396,610.693 634.864,610.253 635.15,612.512C636.596,623.964 663.67,635.068 670.398,617.46C670.6,616.93 672.733,611.349 672.305,610.628C671.748,609.69 671.436,610.146 663.5,609.964ZM11.823,445.635C11.29,441.883 11.526,433.372 16.514,438.486C22.051,444.164 23.211,437.65 25.457,437.318C31.818,436.378 31.952,438.294 31.965,439.454C32.07,448.476 31.698,448.374 32.921,457.444C34.162,466.642 28.822,464.588 24.511,464.275C17.968,463.8 7.644,466.403 3.698,440.462C1.086,423.284 9.252,443.49 9.817,445.302L11.823,445.635ZM790.155,605.035C784.804,606.25 786.15,603.464 786.35,603.19C786.445,603.059 789.037,603.284 789.449,603.577C789.555,603.652 789.449,603.577 790.155,605.035Z" style="fill:rgb(3,2,0);fill-opacity:1;"/>
            </g>
            <g transform="matrix(0.895676,0,0,0.838255,-218.780961,1633.066996)">
                <g transform="matrix(75,0,0,75,1828.457884,961.213643)">
                </g>
                <text x="704.703px" y="961.214px" style="font-family:'ArialMT', 'Arial', sans-serif;font-size:75px;">THE IT<tspan x="936.624px 986.649px " y="961.214px 961.214px ">AL</tspan>IAN MUSIC DESIGNER</text>
            </g>
        </g>
    </g>
</svg>
